<svg id="Слой_1" data-name="Слой 1" xmlns="http://www.w3.org/2000/svg" viewBox="0 0 229.5 95.46"><defs><style>.cls-1{fill:#fff;}.cls-2{fill:#ed5050;}</style></defs><title>logo</title><polygon class="cls-1" points="7.63 24.61 7.63 28.52 11.02 30.48 14.41 28.52 14.41 24.61 11.02 22.65 7.63 24.61"/><polygon class="cls-1" points="0.85 30.77 0.85 33.47 3.18 34.81 5.51 33.47 5.51 30.77 3.18 29.43 0.85 30.77"/><polygon class="cls-1" points="0 23.91 0 25.4 1.28 26.14 2.57 25.4 2.57 23.91 1.28 23.17 0 23.91"/><polygon class="cls-1" points="7.23 6.91 7.23 9.34 9.34 10.56 11.44 9.34 11.44 6.91 9.34 5.69 7.23 6.91"/><polygon class="cls-1" points="4.66 16.94 4.66 19.4 6.79 20.63 8.93 19.4 8.93 16.94 6.79 15.71 4.66 16.94"/><polygon class="cls-1" points="14.33 13.26 14.33 14.68 15.56 15.38 16.78 14.68 16.78 13.26 15.56 12.55 14.33 13.26"/><polygon class="cls-1" points="1.07 10.88 1.07 12.58 2.54 13.42 4.01 12.58 4.01 10.88 2.54 10.03 1.07 10.88"/><polygon class="cls-1" points="46.26 31.22 40.81 40.55 58.6 40.55 58.6 31.22 46.26 31.22"/><path class="cls-2" d="M206.22,117.82h0l0-4.11,0-5.22H193.85v9.33h0v2.67l-.13-.07v0l-17,9.75-16.59-9.47V101.29l.17-.1L177,91.54l16.88,9.75v2.36l12.33.18v-9.7l-.52-.29L177,77.27l-24.2,14v1.52L150.7,94l-1.33-.77-1.43.83-.18.1v4l4.21,2.43v6.12l-4.21,2.43v18.81l.81.49h0l.09.06,2.07,1.18,26,14.84,29.41-16.82.13-.07v0Zm-50.41-3.18-2.57,1.48-2.57-1.48v-3l2.57-1.48,2.57,1.48Zm2.09-17.88v-2l1.7-1,1.69,1v2l-1.69,1Z" transform="translate(-135.25 -77.27)"/><polygon class="cls-1" points="98.24 50.21 76.75 50.21 76.75 17 98.24 17 98.24 22.02 82.68 22.02 82.68 31 97.39 31 97.39 35.71 82.68 35.71 82.68 45.2 98.24 45.2 98.24 50.21"/><polygon class="cls-1" points="103.39 50.21 103.39 17 108.55 17 125.03 40.27 125.23 40.27 125.23 17 130.94 17 130.94 50.21 125.83 50.21 109.33 26.92 109.12 26.92 109.12 50.21 103.39 50.21"/><polygon class="cls-1" points="158.3 50.21 136.81 50.21 136.81 17 158.3 17 158.3 22.02 142.75 22.02 142.75 31 157.45 31 157.45 35.71 142.75 35.71 142.75 45.2 158.3 45.2 158.3 50.21"/><path class="cls-1" d="M303.1,118.14c.37,3.06,3.43,5.06,7.48,5.06s6.79-2,6.79-4.74c0-2.39-1.7-3.77-5.89-4.76l-4.3-1c-6.12-1.4-9-4.35-9-9.09,0-5.89,5.13-9.87,12.35-9.87s12.16,4,12.29,9.8h-5.66c-.27-3.1-2.87-5-6.67-5s-6.28,1.84-6.28,4.61c0,2.21,1.68,3.49,5.75,4.46l3.82.87c6.74,1.55,9.6,4.33,9.6,9.28,0,6.3-5.07,10.26-13.1,10.26-7.64,0-12.66-3.77-12.91-9.89Z" transform="translate(-135.25 -77.27)"/><rect class="cls-1" x="192.57" y="17" width="5.94" height="33.21"/><path class="cls-1" d="M344,118.14c.37,3.06,3.43,5.06,7.48,5.06s6.79-2,6.79-4.74c0-2.39-1.71-3.77-5.9-4.76l-4.3-1c-6.12-1.4-9-4.35-9-9.09,0-5.89,5.13-9.87,12.36-9.87s12.15,4,12.29,9.8H358c-.28-3.1-2.88-5-6.68-5s-6.28,1.84-6.28,4.61c0,2.21,1.68,3.49,5.75,4.46l3.82.87c6.75,1.55,9.6,4.33,9.6,9.28,0,6.3-5.06,10.26-13.1,10.26-7.63,0-12.65-3.77-12.91-9.89Z" transform="translate(-135.25 -77.27)"/><path class="cls-1" d="M155.85,150.49c6.53,0,10.39,4,10.39,10.89s-3.85,11-10.39,11h-8.1V150.49Zm-4.19,18.57h3.78c4.39,0,6.82-2.68,6.82-7.67s-2.46-7.59-6.82-7.59h-3.78Z" transform="translate(-135.25 -77.27)"/><polygon class="cls-1" points="48.23 95.1 34.08 95.1 34.08 73.22 48.23 73.22 48.23 76.53 37.99 76.53 37.99 82.44 47.67 82.44 47.67 85.55 37.99 85.55 37.99 91.79 48.23 91.79 48.23 95.1"/><polygon class="cls-1" points="57.72 95.1 50.11 73.22 54.41 73.22 59.96 90.9 60.05 90.9 65.6 73.22 69.81 73.22 62.2 95.1 57.72 95.1"/><polygon class="cls-1" points="86.3 95.1 72.14 95.1 72.14 73.22 86.3 73.22 86.3 76.53 76.05 76.53 76.05 82.44 85.74 82.44 85.74 85.55 76.05 85.55 76.05 91.79 86.3 91.79 86.3 95.1"/><polygon class="cls-1" points="103.53 95.1 89.69 95.1 89.69 73.22 93.59 73.22 93.59 91.79 103.53 91.79 103.53 95.1"/><path class="cls-1" d="M260.67,161.44c0,7-4,11.29-10.37,11.29s-10.38-4.33-10.38-11.29,4-11.31,10.38-11.31,10.37,4.35,10.37,11.31m-16.75,0c0,4.86,2.47,8,6.38,8s6.39-3.1,6.39-8-2.49-8-6.39-8-6.38,3.1-6.38,8" transform="translate(-135.25 -77.27)"/><path class="cls-1" d="M272.59,150.49a7,7,0,0,1,7.35,7.32c0,4.37-3.09,7.33-7.51,7.33h-4.75v7.23h-3.91V150.49ZM267.68,162h3.87c2.8,0,4.42-1.51,4.42-4.17s-1.6-4.12-4.41-4.12h-3.88Z" transform="translate(-135.25 -77.27)"/><polygon class="cls-1" points="170.11 95.1 166.59 95.1 166.59 79.57 166.48 79.57 160.16 94.92 157.5 94.92 151.17 79.57 151.07 79.57 151.07 95.1 147.53 95.1 147.53 73.22 152.07 73.22 158.77 89.73 158.89 89.73 165.59 73.22 170.11 73.22 170.11 95.1"/><polygon class="cls-1" points="188.12 95.1 173.96 95.1 173.96 73.22 188.12 73.22 188.12 76.53 177.87 76.53 177.87 82.44 187.56 82.44 187.56 85.55 177.87 85.55 177.87 91.79 188.12 91.79 188.12 95.1"/><polygon class="cls-1" points="191.51 95.1 191.51 73.22 194.9 73.22 205.76 88.55 205.89 88.55 205.89 73.22 209.65 73.22 209.65 95.1 206.29 95.1 195.42 79.75 195.28 79.75 195.28 95.1 191.51 95.1"/><polygon class="cls-1" points="218.95 95.1 218.95 76.53 212.31 76.53 212.31 73.22 229.5 73.22 229.5 76.53 222.86 76.53 222.86 95.1 218.95 95.1"/></svg>